<mxfile host="app.diagrams.net" modified="2022-05-20T05:10:50.323Z" agent="5.0 (Windows)" etag="8RvCpv7AgP6DknyNFsJu" version="18.0.7" type="github">
  <diagram id="SKwebUCb6MB1lfp-s0nT" name="Page-1">
    <mxGraphModel dx="3166" dy="1243" grid="1" gridSize="10" guides="1" tooltips="1" connect="1" arrows="1" fold="1" page="1" pageScale="1" pageWidth="827" pageHeight="1169" math="0" shadow="0">
      <root>
        <mxCell id="0" />
        <mxCell id="1" parent="0" />
        <mxCell id="xlQ56PsdhDjKewTOTQjb-1" value="" style="rounded=0;whiteSpace=wrap;html=1;fillColor=none;" vertex="1" parent="1">
          <mxGeometry x="40" y="40" width="1370" height="900" as="geometry" />
        </mxCell>
        <mxCell id="xlQ56PsdhDjKewTOTQjb-2" value="" style="rounded=0;whiteSpace=wrap;html=1;fillColor=#000000;" vertex="1" parent="1">
          <mxGeometry x="40" y="740" width="1370" height="200" as="geometry" />
        </mxCell>
        <mxCell id="xlQ56PsdhDjKewTOTQjb-3" value="" style="rounded=0;whiteSpace=wrap;html=1;fillColor=#FFFFFF;" vertex="1" parent="1">
          <mxGeometry x="40" y="40" width="1370" height="90" as="geometry" />
        </mxCell>
      </root>
    </mxGraphModel>
  </diagram>
</mxfile>
